<?plantuml 1.2026.1?><svg xmlns="http://www.w3.org/2000/svg" xmlns:xlink="http://www.w3.org/1999/xlink" contentStyleType="text/css" data-diagram-type="SEQUENCE" height="446px" preserveAspectRatio="none" style="width:750px;height:446px;background:#FFFFFF;" version="1.1" viewBox="0 0 750 446" width="750px" zoomAndPan="magnify"><defs/><g><g class="participant-lifeline" data-entity-uid="part1" data-qualified-name="User" id="part1-lifeline"><g><title>User</title><rect fill="#000000" fill-opacity="0.00000" height="283.7949" width="8" x="19.1826" y="81.4883"/><line style="stroke:#181818;stroke-width:0.5;stroke-dasharray:5,5;" x1="23" x2="23" y1="81.4883" y2="365.2832"/></g></g><g class="participant-lifeline" data-entity-uid="part2" data-qualified-name="Client" id="part2-lifeline"><g><title>Postman.Client</title><rect fill="#000000" fill-opacity="0.00000" height="283.7949" width="8" x="193.6729" y="81.4883"/><line style="stroke:#181818;stroke-width:0.5;stroke-dasharray:5,5;" x1="197.1489" x2="197.1489" y1="81.4883" y2="365.2832"/></g></g><g class="participant-lifeline" data-entity-uid="part3" data-qualified-name="Route" id="part3-lifeline"><g><title>Booking Route</title><rect fill="#000000" fill-opacity="0.00000" height="283.7949" width="8" x="319.4497" y="81.4883"/><line style="stroke:#181818;stroke-width:0.5;stroke-dasharray:5,5;" x1="323.1968" x2="323.1968" y1="81.4883" y2="365.2832"/></g></g><g class="participant-lifeline" data-entity-uid="part4" data-qualified-name="Controller" id="part4-lifeline"><g><title>Booking Controller</title><rect fill="#000000" fill-opacity="0.00000" height="283.7949" width="8" x="456.4478" y="81.4883"/><line style="stroke:#181818;stroke-width:0.5;stroke-dasharray:5,5;" x1="459.7026" x2="459.7026" y1="81.4883" y2="365.2832"/></g></g><g class="participant-lifeline" data-entity-uid="part5" data-qualified-name="Model" id="part5-lifeline"><g><title>Booking Model</title><rect fill="#000000" fill-opacity="0.00000" height="283.7949" width="8" x="594.5156" y="81.4883"/><line style="stroke:#181818;stroke-width:0.5;stroke-dasharray:5,5;" x1="598.1929" x2="598.1929" y1="81.4883" y2="365.2832"/></g></g><g class="participant-lifeline" data-entity-uid="part6" data-qualified-name="MongoDB" id="part6-lifeline"><g><title>MongoDB</title><rect fill="#000000" fill-opacity="0.00000" height="283.7949" width="8" x="710.271" y="81.4883"/><line style="stroke:#181818;stroke-width:0.5;stroke-dasharray:5,5;" x1="713.6636" x2="713.6636" y1="81.4883" y2="365.2832"/></g></g><g class="participant participant-head" data-entity-uid="part1" data-qualified-name="User" id="part1-head"><text fill="#000000" font-family="sans-serif" font-size="14" lengthAdjust="spacing" textLength="30.3652" x="5" y="78.5352">User</text><ellipse cx="23.1826" cy="13.5" fill="#E2E2F0" rx="8" ry="8" style="stroke:#181818;stroke-width:0.5;"/><path d="M23.1826,21.5 L23.1826,48.5 M10.1826,29.5 L36.1826,29.5 M23.1826,48.5 L10.1826,63.5 M23.1826,48.5 L36.1826,63.5" fill="none" style="stroke:#181818;stroke-width:0.5;"/></g><g class="participant participant-tail" data-entity-uid="part1" data-qualified-name="User" id="part1-tail"><text fill="#000000" font-family="sans-serif" font-size="14" lengthAdjust="spacing" textLength="30.3652" x="5" y="377.8184">User</text><ellipse cx="23.1826" cy="389.2715" fill="#E2E2F0" rx="8" ry="8" style="stroke:#181818;stroke-width:0.5;"/><path d="M23.1826,397.2715 L23.1826,424.2715 M10.1826,405.2715 L36.1826,405.2715 M23.1826,424.2715 L10.1826,439.2715 M23.1826,424.2715 L36.1826,439.2715" fill="none" style="stroke:#181818;stroke-width:0.5;"/></g><g class="participant participant-head" data-entity-uid="part2" data-qualified-name="Client" id="part2-head"><rect fill="#E2E2F0" height="30.4883" rx="2.5" ry="2.5" style="stroke:#181818;stroke-width:0.5;" width="119.0479" x="138.1489" y="50"/><text fill="#000000" font-family="sans-serif" font-size="14" lengthAdjust="spacing" textLength="105.0479" x="145.1489" y="70.5352">Postman/Client</text></g><g class="participant participant-tail" data-entity-uid="part2" data-qualified-name="Client" id="part2-tail"><rect fill="#E2E2F0" height="30.4883" rx="2.5" ry="2.5" style="stroke:#181818;stroke-width:0.5;" width="119.0479" x="138.1489" y="364.2832"/><text fill="#000000" font-family="sans-serif" font-size="14" lengthAdjust="spacing" textLength="105.0479" x="145.1489" y="384.8184">Postman/Client</text></g><g class="participant participant-head" data-entity-uid="part3" data-qualified-name="Route" id="part3-head"><rect fill="#E2E2F0" height="30.4883" rx="2.5" ry="2.5" style="stroke:#181818;stroke-width:0.5;" width="112.5059" x="267.1968" y="50"/><text fill="#000000" font-family="sans-serif" font-size="14" lengthAdjust="spacing" textLength="98.5059" x="274.1968" y="70.5352">Booking Route</text></g><g class="participant participant-tail" data-entity-uid="part3" data-qualified-name="Route" id="part3-tail"><rect fill="#E2E2F0" height="30.4883" rx="2.5" ry="2.5" style="stroke:#181818;stroke-width:0.5;" width="112.5059" x="267.1968" y="364.2832"/><text fill="#000000" font-family="sans-serif" font-size="14" lengthAdjust="spacing" textLength="98.5059" x="274.1968" y="384.8184">Booking Route</text></g><g class="participant participant-head" data-entity-uid="part4" data-qualified-name="Controller" id="part4-head"><rect fill="#E2E2F0" height="30.4883" rx="2.5" ry="2.5" style="stroke:#181818;stroke-width:0.5;" width="141.4902" x="389.7026" y="50"/><text fill="#000000" font-family="sans-serif" font-size="14" lengthAdjust="spacing" textLength="127.4902" x="396.7026" y="70.5352">Booking Controller</text></g><g class="participant participant-tail" data-entity-uid="part4" data-qualified-name="Controller" id="part4-tail"><rect fill="#E2E2F0" height="30.4883" rx="2.5" ry="2.5" style="stroke:#181818;stroke-width:0.5;" width="141.4902" x="389.7026" y="364.2832"/><text fill="#000000" font-family="sans-serif" font-size="14" lengthAdjust="spacing" textLength="127.4902" x="396.7026" y="384.8184">Booking Controller</text></g><g class="participant participant-head" data-entity-uid="part5" data-qualified-name="Model" id="part5-head"><rect fill="#E2E2F0" height="30.4883" rx="2.5" ry="2.5" style="stroke:#181818;stroke-width:0.5;" width="114.6455" x="541.1929" y="50"/><text fill="#000000" font-family="sans-serif" font-size="14" lengthAdjust="spacing" textLength="100.6455" x="548.1929" y="70.5352">Booking Model</text></g><g class="participant participant-tail" data-entity-uid="part5" data-qualified-name="Model" id="part5-tail"><rect fill="#E2E2F0" height="30.4883" rx="2.5" ry="2.5" style="stroke:#181818;stroke-width:0.5;" width="114.6455" x="541.1929" y="364.2832"/><text fill="#000000" font-family="sans-serif" font-size="14" lengthAdjust="spacing" textLength="100.6455" x="548.1929" y="384.8184">Booking Model</text></g><g class="participant participant-head" data-entity-uid="part6" data-qualified-name="MongoDB" id="part6-head"><text fill="#000000" font-family="sans-serif" font-size="14" lengthAdjust="spacing" textLength="65.2148" x="678.6636" y="78.5352">MongoDB</text><path d="M696.271,29 C696.271,19 714.271,19 714.271,19 C714.271,19 732.271,19 732.271,29 L732.271,55 C732.271,65 714.271,65 714.271,65 C714.271,65 696.271,65 696.271,55 L696.271,29" fill="#E2E2F0" style="stroke:#181818;stroke-width:0.5;"/><path d="M696.271,29 C696.271,39 714.271,39 714.271,39 C714.271,39 732.271,39 732.271,29" fill="none" style="stroke:#181818;stroke-width:0.5;"/></g><g class="participant participant-tail" data-entity-uid="part6" data-qualified-name="MongoDB" id="part6-tail"><text fill="#000000" font-family="sans-serif" font-size="14" lengthAdjust="spacing" textLength="65.2148" x="678.6636" y="377.8184">MongoDB</text><path d="M696.271,390.7715 C696.271,380.7715 714.271,380.7715 714.271,380.7715 C714.271,380.7715 732.271,380.7715 732.271,390.7715 L732.271,416.7715 C732.271,426.7715 714.271,426.7715 714.271,426.7715 C714.271,426.7715 696.271,426.7715 696.271,416.7715 L696.271,390.7715" fill="#E2E2F0" style="stroke:#181818;stroke-width:0.5;"/><path d="M696.271,390.7715 C696.271,400.7715 714.271,400.7715 714.271,400.7715 C714.271,400.7715 732.271,400.7715 732.271,390.7715" fill="none" style="stroke:#181818;stroke-width:0.5;"/></g><g class="message" data-entity-1="part1" data-entity-2="part2" id="msg1"><polygon fill="#181818" points="185.6729,108.7988,195.6729,112.7988,185.6729,116.7988,189.6729,112.7988" style="stroke:#181818;stroke-width:1;"/><line style="stroke:#181818;stroke-width:1;" x1="23.1826" x2="191.6729" y1="112.7988" y2="112.7988"/><text fill="#000000" font-family="sans-serif" font-size="13" lengthAdjust="spacing" textLength="150.4902" x="30.1826" y="108.0566">Create Booking Request</text></g><g class="message" data-entity-1="part2" data-entity-2="part3" id="msg2"><polygon fill="#181818" points="311.4497,138.1094,321.4497,142.1094,311.4497,146.1094,315.4497,142.1094" style="stroke:#181818;stroke-width:1;"/><line style="stroke:#181818;stroke-width:1;" x1="197.6729" x2="317.4497" y1="142.1094" y2="142.1094"/><text fill="#000000" font-family="sans-serif" font-size="13" lengthAdjust="spacing" textLength="101.7466" x="204.6729" y="137.3672">POST /bookings</text></g><g class="message" data-entity-1="part3" data-entity-2="part4" id="msg3"><polygon fill="#181818" points="448.4478,167.4199,458.4478,171.4199,448.4478,175.4199,452.4478,171.4199" style="stroke:#181818;stroke-width:1;"/><line style="stroke:#181818;stroke-width:1;" x1="323.4497" x2="454.4478" y1="171.4199" y2="171.4199"/><text fill="#000000" font-family="sans-serif" font-size="13" lengthAdjust="spacing" textLength="97.938" x="330.4497" y="166.6777">createBooking()</text></g><g class="message" data-entity-1="part4" data-entity-2="part5" id="msg4"><polygon fill="#181818" points="586.5156,196.7305,596.5156,200.7305,586.5156,204.7305,590.5156,200.7305" style="stroke:#181818;stroke-width:1;"/><line style="stroke:#181818;stroke-width:1;" x1="460.4478" x2="592.5156" y1="200.7305" y2="200.7305"/><text fill="#000000" font-family="sans-serif" font-size="13" lengthAdjust="spacing" textLength="102.0513" x="467.4478" y="195.9883">Booking.create()</text></g><g class="message" data-entity-1="part5" data-entity-2="part6" id="msg5"><polygon fill="#181818" points="702.271,226.041,712.271,230.041,702.271,234.041,706.271,230.041" style="stroke:#181818;stroke-width:1;"/><line style="stroke:#181818;stroke-width:1;" x1="598.5156" x2="708.271" y1="230.041" y2="230.041"/><text fill="#000000" font-family="sans-serif" font-size="13" lengthAdjust="spacing" textLength="91.6729" x="605.5156" y="225.2988">insert booking</text></g><g class="message" data-entity-1="part6" data-entity-2="part5" id="msg6"><polygon fill="#181818" points="609.5156,255.3516,599.5156,259.3516,609.5156,263.3516,605.5156,259.3516" style="stroke:#181818;stroke-width:1;"/><line style="stroke:#181818;stroke-width:1;stroke-dasharray:2,2;" x1="603.5156" x2="713.271" y1="259.3516" y2="259.3516"/><text fill="#000000" font-family="sans-serif" font-size="13" lengthAdjust="spacing" textLength="91.7554" x="615.5156" y="254.6094">booking saved</text></g><g class="message" data-entity-1="part5" data-entity-2="part4" id="msg7"><polygon fill="#181818" points="471.4478,284.6621,461.4478,288.6621,471.4478,292.6621,467.4478,288.6621" style="stroke:#181818;stroke-width:1;"/><line style="stroke:#181818;stroke-width:1;stroke-dasharray:2,2;" x1="465.4478" x2="597.5156" y1="288.6621" y2="288.6621"/><text fill="#000000" font-family="sans-serif" font-size="13" lengthAdjust="spacing" textLength="94.6753" x="477.4478" y="283.9199">return booking</text></g><g class="message" data-entity-1="part4" data-entity-2="part2" id="msg8"><polygon fill="#181818" points="208.6729,313.9727,198.6729,317.9727,208.6729,321.9727,204.6729,317.9727" style="stroke:#181818;stroke-width:1;"/><line style="stroke:#181818;stroke-width:1;stroke-dasharray:2,2;" x1="202.6729" x2="459.4478" y1="317.9727" y2="317.9727"/><text fill="#000000" font-family="sans-serif" font-size="13" lengthAdjust="spacing" textLength="77.7969" x="214.6729" y="313.2305">201 Created</text></g><g class="message" data-entity-1="part2" data-entity-2="part1" id="msg9"><polygon fill="#181818" points="34.1826,343.2832,24.1826,347.2832,34.1826,351.2832,30.1826,347.2832" style="stroke:#181818;stroke-width:1;"/><line style="stroke:#181818;stroke-width:1;stroke-dasharray:2,2;" x1="28.1826" x2="196.6729" y1="347.2832" y2="347.2832"/><text fill="#000000" font-family="sans-serif" font-size="13" lengthAdjust="spacing" textLength="109.916" x="40.1826" y="342.541">success response</text></g><?plantuml-src RP3BJWCn34Nt-GghArYK0iikM7JO8YeU7-1ch6h440-nX-_7TT9eYhfpSezkJenHESEdK0uJPXtYC65IMErPz1lJfXi7Ihe252ZZ9RPZ_XhI4TvuLdBAf-jGnqapZoFbqjUEr_4NxcbqqgVGe-81XUoOZloy2-6a3UkdQWPRw3AX4ZGh-fb9DDJSIBSpSF_w_W6RG-4abEjJKtCoA7fRBRkv3M6H6kjMXbNWhk36bS095pLcIAQgK1yCvs2zgAaP2FvIV-xuhvH9vvnQpuNHSX6Fzmzr6NtxlUM-i2t872E9M9jCR6P_?></g></svg>